ffmpeg started on 2026-03-22 at 17:46:35
Report written to "D:\Convert\FFMetrics\reports\psnr_report-6.txt"
Log level: 32
Command line:
ffmpeg -hide_banner -nostdin -r 24000/1001 -i "F:\\Convert\\files\\[DC] Make Heroine ga Oosugiru - 07_Telegram_HEVC(243).mkv" -r 24000/1001 -i "F:\\Convert\\files\\[DC] Make Heroine ga Oosugiru - 07_Telegram.mp4" -lavfi "[0:v]settb=AVTB,setpts=PTS-STARTPTS,format=pix_fmts=yuv420p10le,fps=24000/1001,scale=1920:1080:flags=lanczos:param0=3:out_range=limited:out_color_matrix=bt709:out_chroma_loc=left,setsar=1/1,setdar=(1920/1080)*(1/1),colorspace=format=yuv420p10:range=tv:primaries=bt709:trc=bt709:space=bt709:fast=0[main];[1:v]settb=AVTB,setpts=PTS-STARTPTS,format=pix_fmts=yuv420p,fps=24000/1001,scale=1920:1080:flags=lanczos:param0=3:out_range=limited:out_color_matrix=bt709:out_chroma_loc=left,setsar=1.000,setdar=1.778,colorspace=format=yuv420p:range=tv:primaries=bt709:trc=bt709:space=bt709:fast=0[ref];[main][ref]psnr=eof_action=endall:stats_file='D\\:/Convert/FFMetrics/logs/psnr_logfile-6.txt'" -f null -
Input #0, matroska,webm, from 'F:\Convert\files\[DC] Make Heroine ga Oosugiru - 07_Telegram_HEVC(243).mkv':
  Metadata:
    COMPATIBLE_BRANDS: isomiso2avc1mp41
    MAJOR_BRAND     : isom
    MINOR_VERSION   : 512
    ENCODER         : Lavf61.7.100
  Duration: 00:24:06.79, start: -0.021000, bitrate: 988 kb/s
  Stream #0:0: Video: hevc (Main 10), yuv420p10le(tv, bt709, progressive), 1920x1080 [SAR 1:1 DAR 16:9], 23.98 fps, 23.98 tbr, 1k tbn (default)
      Metadata:
        HANDLER_NAME    : VideoHandler
        VENDOR_ID       : [0][0][0][0]
        ENCODER         : Lavc61.19.100 libx265
        BPS             : 791147
        DURATION        : 00:24:06.569708333
        NUMBER_OF_FRAMES: 34683
        NUMBER_OF_BYTES : 143056210
        _STATISTICS_WRITING_APP: mkvpropedit v94.0 ('Initiate') 64-bit
        _STATISTICS_WRITING_DATE_UTC: 2026-03-21 15:40:20
        _STATISTICS_TAGS: BPS DURATION NUMBER_OF_FRAMES NUMBER_OF_BYTES
  Stream #0:1: Audio: aac (LC), 48000 Hz, stereo, fltp (default)
      Metadata:
        HANDLER_NAME    : SoundHandler
        VENDOR_ID       : [0][0][0][0]
        ENCODER         : Lavc61.19.100 aac
        BPS             : 193194
        DURATION        : 00:24:06.784000000
        NUMBER_OF_FRAMES: 67819
        NUMBER_OF_BYTES : 34938755
        _STATISTICS_WRITING_APP: mkvpropedit v94.0 ('Initiate') 64-bit
        _STATISTICS_WRITING_DATE_UTC: 2026-03-21 15:40:20
        _STATISTICS_TAGS: BPS DURATION NUMBER_OF_FRAMES NUMBER_OF_BYTES
Input #1, mov,mp4,m4a,3gp,3g2,mj2, from 'F:\Convert\files\[DC] Make Heroine ga Oosugiru - 07_Telegram.mp4':
  Metadata:
    major_brand     : isom
    minor_version   : 512
    compatible_brands: isomiso2avc1mp41
    encoder         : Lavf60.16.100
  Duration: 00:24:06.74, start: 0.000000, bitrate: 3764 kb/s
  Stream #1:0[0x1](und): Video: h264 (High) (avc1 / 0x31637661), yuv420p(tv, bt709, progressive), 1920x1080 [SAR 1:1 DAR 16:9], 3616 kb/s, 23.98 fps, 23.98 tbr, 24k tbn (default)
      Metadata:
        handler_name    : VideoHandler
        vendor_id       : [0][0][0][0]
        encoder         : Lavc60.31.102 h264_qsv
  Stream #1:1[0x2](und): Audio: aac (HE-AACv2) (mp4a / 0x6134706D), 48000 Hz, stereo, fltp, 144 kb/s (default)
      Metadata:
        handler_name    : SoundHandler
        vendor_id       : [0][0][0][0]
Stream mapping:
  Stream #0:0 (hevc) -> settb:default
  Stream #1:0 (h264) -> settb:default
  psnr:default -> Stream #0:0 (wrapped_avframe)
  Stream #0:1 -> #0:1 (aac (native) -> pcm_s16le (native))
Output #0, null, to 'pipe:':
  Metadata:
    COMPATIBLE_BRANDS: isomiso2avc1mp41
    MAJOR_BRAND     : isom
    MINOR_VERSION   : 512
    encoder         : Lavf61.7.100
  Stream #0:0: Video: wrapped_avframe, yuv420p10le(tv, bt709, progressive), 1920x1080 [SAR 1:1 DAR 16:9], q=2-31, 200 kb/s, 23.98 fps, 23.98 tbn
      Metadata:
        encoder         : Lavc61.19.100 wrapped_avframe
  Stream #0:1: Audio: pcm_s16le, 48000 Hz, stereo, s16, 1536 kb/s (default)
      Metadata:
        HANDLER_NAME    : SoundHandler
        VENDOR_ID       : [0][0][0][0]
        _STATISTICS_TAGS: BPS DURATION NUMBER_OF_FRAMES NUMBER_OF_BYTES
        BPS             : 193194
        DURATION        : 00:24:06.784000000
        NUMBER_OF_FRAMES: 67819
        NUMBER_OF_BYTES : 34938755
        _STATISTICS_WRITING_APP: mkvpropedit v94.0 ('Initiate') 64-bit
        _STATISTICS_WRITING_DATE_UTC: 2026-03-21 15:40:20
        encoder         : Lavc61.19.100 pcm_s16le
frame=  139 fps=0.0 q=-0.0 size=N/A time=00:00:05.79 bitrate=N/A speed=11.4x    frame=  350 fps=338 q=-0.0 size=N/A time=00:00:14.59 bitrate=N/A speed=14.1x    frame=  552 fps=356 q=-0.0 size=N/A time=00:00:23.02 bitrate=N/A speed=14.9x    frame=  764 fps=371 q=-0.0 size=N/A time=00:00:31.86 bitrate=N/A speed=15.5x    frame=  934 fps=363 q=-0.0 size=N/A time=00:00:38.95 bitrate=N/A speed=15.1x    frame= 1091 fps=354 q=-0.0 size=N/A time=00:00:45.50 bitrate=N/A speed=14.7x    frame= 1257 fps=348 q=-0.0 size=N/A time=00:00:52.42 bitrate=N/A speed=14.5x    frame= 1421 fps=345 q=-0.0 size=N/A time=00:00:59.26 bitrate=N/A speed=14.4x    frame= 1556 fps=336 q=-0.0 size=N/A time=00:01:04.89 bitrate=N/A speed=  14x    frame= 1703 fps=330 q=-0.0 size=N/A time=00:01:11.02 bitrate=N/A speed=13.8x    frame= 1878 fps=331 q=-0.0 size=N/A time=00:01:18.32 bitrate=N/A speed=13.8x    frame= 2044 fps=331 q=-0.0 size=N/A time=00:01:25.25 bitrate=N/A speed=13.8x    frame= 2160 fps=322 q=-0.0 size=N/A time=00:01:30.09 bitrate=N/A speed=13.4x    frame= 2322 fps=322 q=-0.0 size=N/A time=00:01:36.84 bitrate=N/A speed=13.4x    frame= 2461 fps=318 q=-0.0 size=N/A time=00:01:42.64 bitrate=N/A speed=13.3x    frame= 2599 fps=315 q=-0.0 size=N/A time=00:01:48.39 bitrate=N/A speed=13.1x    frame= 2780 fps=317 q=-0.0 size=N/A time=00:01:55.94 bitrate=N/A speed=13.2x    frame= 2940 fps=317 q=-0.0 size=N/A time=00:02:02.62 bitrate=N/A speed=13.2x    frame= 3120 fps=319 q=-0.0 size=N/A time=00:02:10.13 bitrate=N/A speed=13.3x    frame= 3315 fps=322 q=-0.0 size=N/A time=00:02:18.26 bitrate=N/A speed=13.4x    frame= 3525 fps=325 q=-0.0 size=N/A time=00:02:27.02 bitrate=N/A speed=13.6x    frame= 3733 fps=329 q=-0.0 size=N/A time=00:02:35.69 bitrate=N/A speed=13.7x    frame= 3928 fps=331 q=-0.0 size=N/A time=00:02:43.83 bitrate=N/A speed=13.8x    frame= 4126 fps=334 q=-0.0 size=N/A time=00:02:52.08 bitrate=N/A speed=13.9x    frame= 4331 fps=336 q=-0.0 size=N/A time=00:03:00.63 bitrate=N/A speed=  14x    frame= 4529 fps=338 q=-0.0 size=N/A time=00:03:08.89 bitrate=N/A speed=14.1x    frame= 4726 fps=340 q=-0.0 size=N/A time=00:03:17.11 bitrate=N/A speed=14.2x    frame= 4919 fps=341 q=-0.0 size=N/A time=00:03:25.16 bitrate=N/A speed=14.2x    frame= 5118 fps=342 q=-0.0 size=N/A time=00:03:33.46 bitrate=N/A speed=14.3x    frame= 5304 fps=343 q=-0.0 size=N/A time=00:03:41.22 bitrate=N/A speed=14.3x    frame= 5502 fps=344 q=-0.0 size=N/A time=00:03:49.47 bitrate=N/A speed=14.4x    frame= 5704 fps=346 q=-0.0 size=N/A time=00:03:57.90 bitrate=N/A speed=14.4x    frame= 5893 fps=346 q=-0.0 size=N/A time=00:04:05.78 bitrate=N/A speed=14.4x    frame= 6088 fps=347 q=-0.0 size=N/A time=00:04:13.92 bitrate=N/A speed=14.5x    frame= 6283 fps=348 q=-0.0 size=N/A time=00:04:22.05 bitrate=N/A speed=14.5x    frame= 6477 fps=349 q=-0.0 size=N/A time=00:04:30.14 bitrate=N/A speed=14.6x    frame= 6671 fps=350 q=-0.0 size=N/A time=00:04:38.23 bitrate=N/A speed=14.6x    frame= 6866 fps=350 q=-0.0 size=N/A time=00:04:46.36 bitrate=N/A speed=14.6x    frame= 7051 fps=351 q=-0.0 size=N/A time=00:04:54.08 bitrate=N/A speed=14.6x    frame= 7242 fps=351 q=-0.0 size=N/A time=00:05:02.05 bitrate=N/A speed=14.6x    frame= 7442 fps=352 q=-0.0 size=N/A time=00:05:10.39 bitrate=N/A speed=14.7x    frame= 7615 fps=352 q=-0.0 size=N/A time=00:05:17.60 bitrate=N/A speed=14.7x    frame= 7807 fps=352 q=-0.0 size=N/A time=00:05:25.61 bitrate=N/A speed=14.7x    frame= 7989 fps=352 q=-0.0 size=N/A time=00:05:33.20 bitrate=N/A speed=14.7x    frame= 8176 fps=352 q=-0.0 size=N/A time=00:05:41.00 bitrate=N/A speed=14.7x    frame= 8366 fps=353 q=-0.0 size=N/A time=00:05:48.93 bitrate=N/A speed=14.7x    frame= 8549 fps=353 q=-0.0 size=N/A time=00:05:56.56 bitrate=N/A speed=14.7x    frame= 8737 fps=353 q=-0.0 size=N/A time=00:06:04.40 bitrate=N/A speed=14.7x    frame= 8930 fps=354 q=-0.0 size=N/A time=00:06:12.45 bitrate=N/A speed=14.7x    frame= 9109 fps=353 q=-0.0 size=N/A time=00:06:19.92 bitrate=N/A speed=14.7x    frame= 9313 fps=354 q=-0.0 size=N/A time=00:06:28.42 bitrate=N/A speed=14.8x    frame= 9498 fps=354 q=-0.0 size=N/A time=00:06:36.14 bitrate=N/A speed=14.8x    frame= 9685 fps=354 q=-0.0 size=N/A time=00:06:43.94 bitrate=N/A speed=14.8x    frame= 9878 fps=355 q=-0.0 size=N/A time=00:06:51.99 bitrate=N/A speed=14.8x    frame=10065 fps=355 q=-0.0 size=N/A time=00:06:59.79 bitrate=N/A speed=14.8x    frame=10251 fps=355 q=-0.0 size=N/A time=00:07:07.55 bitrate=N/A speed=14.8x    frame=10434 fps=355 q=-0.0 size=N/A time=00:07:15.18 bitrate=N/A speed=14.8x    frame=10624 fps=355 q=-0.0 size=N/A time=00:07:23.10 bitrate=N/A speed=14.8x    frame=10813 fps=355 q=-0.0 size=N/A time=00:07:30.99 bitrate=N/A speed=14.8x    frame=11018 fps=356 q=-0.0 size=N/A time=00:07:39.54 bitrate=N/A speed=14.9x    frame=11209 fps=356 q=-0.0 size=N/A time=00:07:47.50 bitrate=N/A speed=14.9x    frame=11403 fps=357 q=-0.0 size=N/A time=00:07:55.60 bitrate=N/A speed=14.9x    frame=11600 fps=357 q=-0.0 size=N/A time=00:08:03.81 bitrate=N/A speed=14.9x    frame=11800 fps=358 q=-0.0 size=N/A time=00:08:12.15 bitrate=N/A speed=14.9x    frame=12007 fps=358 q=-0.0 size=N/A time=00:08:20.79 bitrate=N/A speed=14.9x    frame=12211 fps=359 q=-0.0 size=N/A time=00:08:29.30 bitrate=N/A speed=  15x    frame=12403 fps=359 q=-0.0 size=N/A time=00:08:37.30 bitrate=N/A speed=  15x    frame=12602 fps=360 q=-0.0 size=N/A time=00:08:45.60 bitrate=N/A speed=  15x    frame=12811 fps=360 q=-0.0 size=N/A time=00:08:54.32 bitrate=N/A speed=  15x    frame=13006 fps=360 q=-0.0 size=N/A time=00:09:02.45 bitrate=N/A speed=  15x    frame=13201 fps=361 q=-0.0 size=N/A time=00:09:10.59 bitrate=N/A speed=  15x    frame=13404 fps=361 q=-0.0 size=N/A time=00:09:19.05 bitrate=N/A speed=15.1x    frame=13593 fps=361 q=-0.0 size=N/A time=00:09:26.94 bitrate=N/A speed=15.1x    frame=13787 fps=361 q=-0.0 size=N/A time=00:09:35.03 bitrate=N/A speed=15.1x    frame=13984 fps=362 q=-0.0 size=N/A time=00:09:43.24 bitrate=N/A speed=15.1x    frame=14154 fps=361 q=-0.0 size=N/A time=00:09:50.33 bitrate=N/A speed=15.1x    frame=14349 fps=361 q=-0.0 size=N/A time=00:09:58.47 bitrate=N/A speed=15.1x    frame=14535 fps=361 q=-0.0 size=N/A time=00:10:06.23 bitrate=N/A speed=15.1x    frame=14727 fps=361 q=-0.0 size=N/A time=00:10:14.23 bitrate=N/A speed=15.1x    frame=14910 fps=361 q=-0.0 size=N/A time=00:10:21.87 bitrate=N/A speed=15.1x    frame=15086 fps=361 q=-0.0 size=N/A time=00:10:29.21 bitrate=N/A speed=15.1x    frame=15255 fps=361 q=-0.0 size=N/A time=00:10:36.26 bitrate=N/A speed=  15x    frame=15436 fps=361 q=-0.0 size=N/A time=00:10:43.80 bitrate=N/A speed=  15x    frame=15635 fps=361 q=-0.0 size=N/A time=00:10:52.10 bitrate=N/A speed=15.1x    frame=15835 fps=361 q=-0.0 size=N/A time=00:11:00.45 bitrate=N/A speed=15.1x    frame=16036 fps=362 q=-0.0 size=N/A time=00:11:08.83 bitrate=N/A speed=15.1x    frame=16235 fps=362 q=-0.0 size=N/A time=00:11:17.13 bitrate=N/A speed=15.1x    frame=16441 fps=362 q=-0.0 size=N/A time=00:11:25.72 bitrate=N/A speed=15.1x    frame=16624 fps=362 q=-0.0 size=N/A time=00:11:33.35 bitrate=N/A speed=15.1x    frame=16823 fps=363 q=-0.0 size=N/A time=00:11:41.65 bitrate=N/A speed=15.1x    frame=17018 fps=363 q=-0.0 size=N/A time=00:11:49.79 bitrate=N/A speed=15.1x    frame=17201 fps=363 q=-0.0 size=N/A time=00:11:57.42 bitrate=N/A speed=15.1x    frame=17401 fps=363 q=-0.0 size=N/A time=00:12:05.76 bitrate=N/A speed=15.1x    frame=17584 fps=363 q=-0.0 size=N/A time=00:12:13.39 bitrate=N/A speed=15.1x    frame=17775 fps=363 q=-0.0 size=N/A time=00:12:21.36 bitrate=N/A speed=15.1x    frame=17967 fps=363 q=-0.0 size=N/A time=00:12:29.37 bitrate=N/A speed=15.1x    frame=18166 fps=363 q=-0.0 size=N/A time=00:12:37.67 bitrate=N/A speed=15.2x    frame=18346 fps=363 q=-0.0 size=N/A time=00:12:45.18 bitrate=N/A speed=15.1x    frame=18542 fps=363 q=-0.0 size=N/A time=00:12:53.35 bitrate=N/A speed=15.1x    frame=18743 fps=364 q=-0.0 size=N/A time=00:13:01.73 bitrate=N/A speed=15.2x    frame=18942 fps=364 q=-0.0 size=N/A time=00:13:10.03 bitrate=N/A speed=15.2x    frame=19137 fps=364 q=-0.0 size=N/A time=00:13:18.17 bitrate=N/A speed=15.2x    frame=19346 fps=364 q=-0.0 size=N/A time=00:13:26.88 bitrate=N/A speed=15.2x    frame=19540 fps=364 q=-0.0 size=N/A time=00:13:34.98 bitrate=N/A speed=15.2x    frame=19742 fps=365 q=-0.0 size=N/A time=00:13:43.40 bitrate=N/A speed=15.2x    frame=19942 fps=365 q=-0.0 size=N/A time=00:13:51.74 bitrate=N/A speed=15.2x    frame=20141 fps=365 q=-0.0 size=N/A time=00:14:00.04 bitrate=N/A speed=15.2x    frame=20329 fps=365 q=-0.0 size=N/A time=00:14:07.88 bitrate=N/A speed=15.2x    frame=20518 fps=365 q=-0.0 size=N/A time=00:14:15.77 bitrate=N/A speed=15.2x    frame=20700 fps=365 q=-0.0 size=N/A time=00:14:23.36 bitrate=N/A speed=15.2x    frame=20907 fps=365 q=-0.0 size=N/A time=00:14:31.99 bitrate=N/A speed=15.2x    frame=21106 fps=365 q=-0.0 size=N/A time=00:14:40.29 bitrate=N/A speed=15.2x    frame=21317 fps=366 q=-0.0 size=N/A time=00:14:49.09 bitrate=N/A speed=15.3x    frame=21510 fps=366 q=-0.0 size=N/A time=00:14:57.14 bitrate=N/A speed=15.3x    frame=21713 fps=366 q=-0.0 size=N/A time=00:15:05.61 bitrate=N/A speed=15.3x    frame=21916 fps=366 q=-0.0 size=N/A time=00:15:14.07 bitrate=N/A speed=15.3x    frame=22126 fps=367 q=-0.0 size=N/A time=00:15:22.83 bitrate=N/A speed=15.3x    frame=22328 fps=367 q=-0.0 size=N/A time=00:15:31.26 bitrate=N/A speed=15.3x    frame=22529 fps=367 q=-0.0 size=N/A time=00:15:39.64 bitrate=N/A speed=15.3x    frame=22728 fps=367 q=-0.0 size=N/A time=00:15:47.94 bitrate=N/A speed=15.3x    frame=22931 fps=367 q=-0.0 size=N/A time=00:15:56.41 bitrate=N/A speed=15.3x    frame=23132 fps=368 q=-0.0 size=N/A time=00:16:04.79 bitrate=N/A speed=15.3x    frame=23336 fps=368 q=-0.0 size=N/A time=00:16:13.30 bitrate=N/A speed=15.3x    frame=23537 fps=368 q=-0.0 size=N/A time=00:16:21.68 bitrate=N/A speed=15.4x    frame=23746 fps=368 q=-0.0 size=N/A time=00:16:30.40 bitrate=N/A speed=15.4x    frame=23952 fps=369 q=-0.0 size=N/A time=00:16:38.99 bitrate=N/A speed=15.4x    frame=24154 fps=369 q=-0.0 size=N/A time=00:16:47.42 bitrate=N/A speed=15.4x    frame=24349 fps=369 q=-0.0 size=N/A time=00:16:55.55 bitrate=N/A speed=15.4x    frame=24556 fps=369 q=-0.0 size=N/A time=00:17:04.18 bitrate=N/A speed=15.4x    frame=24758 fps=369 q=-0.0 size=N/A time=00:17:12.61 bitrate=N/A speed=15.4x    frame=24954 fps=369 q=-0.0 size=N/A time=00:17:20.78 bitrate=N/A speed=15.4x    frame=25138 fps=369 q=-0.0 size=N/A time=00:17:28.46 bitrate=N/A speed=15.4x    frame=25337 fps=369 q=-0.0 size=N/A time=00:17:36.76 bitrate=N/A speed=15.4x    frame=25528 fps=369 q=-0.0 size=N/A time=00:17:44.73 bitrate=N/A speed=15.4x    frame=25729 fps=370 q=-0.0 size=N/A time=00:17:53.11 bitrate=N/A speed=15.4x    frame=25922 fps=370 q=-0.0 size=N/A time=00:18:01.16 bitrate=N/A speed=15.4x    frame=26121 fps=370 q=-0.0 size=N/A time=00:18:09.46 bitrate=N/A speed=15.4x    frame=26316 fps=370 q=-0.0 size=N/A time=00:18:17.59 bitrate=N/A speed=15.4x    frame=26506 fps=370 q=-0.0 size=N/A time=00:18:25.52 bitrate=N/A speed=15.4x    frame=26706 fps=370 q=-0.0 size=N/A time=00:18:33.86 bitrate=N/A speed=15.4x    frame=26894 fps=370 q=-0.0 size=N/A time=00:18:41.70 bitrate=N/A speed=15.4x    frame=27060 fps=370 q=-0.0 size=N/A time=00:18:48.62 bitrate=N/A speed=15.4x    frame=27255 fps=370 q=-0.0 size=N/A time=00:18:56.76 bitrate=N/A speed=15.4x    frame=27448 fps=370 q=-0.0 size=N/A time=00:19:04.81 bitrate=N/A speed=15.4x    frame=27641 fps=370 q=-0.0 size=N/A time=00:19:12.86 bitrate=N/A speed=15.4x    frame=27840 fps=370 q=-0.0 size=N/A time=00:19:21.16 bitrate=N/A speed=15.4x    frame=28035 fps=370 q=-0.0 size=N/A time=00:19:29.29 bitrate=N/A speed=15.4x    frame=28217 fps=370 q=-0.0 size=N/A time=00:19:36.88 bitrate=N/A speed=15.4x    frame=28403 fps=370 q=-0.0 size=N/A time=00:19:44.64 bitrate=N/A speed=15.4x    frame=28599 fps=370 q=-0.0 size=N/A time=00:19:52.81 bitrate=N/A speed=15.4x    frame=28775 fps=370 q=-0.0 size=N/A time=00:20:00.15 bitrate=N/A speed=15.4x    frame=28948 fps=369 q=-0.0 size=N/A time=00:20:07.37 bitrate=N/A speed=15.4x    frame=29130 fps=369 q=-0.0 size=N/A time=00:20:14.96 bitrate=N/A speed=15.4x    frame=29316 fps=369 q=-0.0 size=N/A time=00:20:22.72 bitrate=N/A speed=15.4x    frame=29487 fps=369 q=-0.0 size=N/A time=00:20:29.85 bitrate=N/A speed=15.4x    frame=29663 fps=369 q=-0.0 size=N/A time=00:20:37.19 bitrate=N/A speed=15.4x    frame=29842 fps=369 q=-0.0 size=N/A time=00:20:44.66 bitrate=N/A speed=15.4x    frame=30003 fps=368 q=-0.0 size=N/A time=00:20:51.37 bitrate=N/A speed=15.4x    frame=30191 fps=368 q=-0.0 size=N/A time=00:20:59.21 bitrate=N/A speed=15.4x    frame=30379 fps=368 q=-0.0 size=N/A time=00:21:07.05 bitrate=N/A speed=15.4x    frame=30582 fps=368 q=-0.0 size=N/A time=00:21:15.52 bitrate=N/A speed=15.4x    frame=30774 fps=368 q=-0.0 size=N/A time=00:21:23.53 bitrate=N/A speed=15.4x    frame=30959 fps=368 q=-0.0 size=N/A time=00:21:31.24 bitrate=N/A speed=15.4x    frame=31146 fps=368 q=-0.0 size=N/A time=00:21:39.04 bitrate=N/A speed=15.4x    frame=31349 fps=368 q=-0.0 size=N/A time=00:21:47.51 bitrate=N/A speed=15.4x    frame=31538 fps=368 q=-0.0 size=N/A time=00:21:55.39 bitrate=N/A speed=15.4x    frame=31744 fps=369 q=-0.0 size=N/A time=00:22:03.98 bitrate=N/A speed=15.4x    frame=31923 fps=368 q=-0.0 size=N/A time=00:22:11.45 bitrate=N/A speed=15.4x    frame=32118 fps=369 q=-0.0 size=N/A time=00:22:19.58 bitrate=N/A speed=15.4x    frame=32307 fps=369 q=-0.0 size=N/A time=00:22:27.47 bitrate=N/A speed=15.4x    frame=32515 fps=369 q=-0.0 size=N/A time=00:22:36.14 bitrate=N/A speed=15.4x    frame=32673 fps=368 q=-0.0 size=N/A time=00:22:42.73 bitrate=N/A speed=15.4x    frame=32836 fps=368 q=-0.0 size=N/A time=00:22:49.53 bitrate=N/A speed=15.4x    frame=33015 fps=368 q=-0.0 size=N/A time=00:22:57.00 bitrate=N/A speed=15.3x    frame=33200 fps=368 q=-0.0 size=N/A time=00:23:04.71 bitrate=N/A speed=15.3x    frame=33387 fps=368 q=-0.0 size=N/A time=00:23:12.51 bitrate=N/A speed=15.3x    frame=33543 fps=367 q=-0.0 size=N/A time=00:23:19.02 bitrate=N/A speed=15.3x    frame=33691 fps=367 q=-0.0 size=N/A time=00:23:25.19 bitrate=N/A speed=15.3x    frame=33816 fps=366 q=-0.0 size=N/A time=00:23:30.40 bitrate=N/A speed=15.3x    frame=33948 fps=366 q=-0.0 size=N/A time=00:23:35.91 bitrate=N/A speed=15.3x    frame=34111 fps=365 q=-0.0 size=N/A time=00:23:42.71 bitrate=N/A speed=15.2x    frame=34261 fps=365 q=-0.0 size=N/A time=00:23:48.96 bitrate=N/A speed=15.2x    frame=34382 fps=364 q=-0.0 size=N/A time=00:23:54.01 bitrate=N/A speed=15.2x    frame=34527 fps=364 q=-0.0 size=N/A time=00:24:00.06 bitrate=N/A speed=15.2x    [Parsed_psnr_16 @ 000001778c59c4c0] PSNR y:48.931141 u:50.319823 v:50.370406 average:49.353279 min:38.044244 max:inf
[out#0/null @ 00000177ff6ee740] video:14903KiB audio:271276KiB subtitle:0KiB other streams:0KiB global headers:0KiB muxing overhead: unknown
frame=34683 fps=364 q=-0.0 Lsize=N/A time=00:24:06.57 bitrate=N/A speed=15.2x    
